<?xml version="1.0" encoding="utf-8"?><svg viewBox="0 0 1920 1080" xmlns="http://www.w3.org/2000/svg" xmlns:xlink="http://www.w3.org/1999/xlink"><style>:root>svg{display:none}:root>svg:target{display:block}</style><svg fill="none" viewBox="0 0 960 401" id="404" xmlns="http://www.w3.org/2000/svg"><path d="M175.229 394.335v-74.979H0v-62.205L154.157 6.665h90.387v256.04h50.462v56.651h-50.462v74.979h-69.315Zm-115.34-131.63h115.34V77.756h-4.436L59.888 262.705ZM481.109 401c-24.769 0-46.21-4.443-64.325-13.33-18.114-9.256-33.086-22.401-44.916-39.433-11.83-17.032-20.702-37.953-26.617-62.761-5.545-24.807-8.318-53.133-8.318-84.976 0-31.473 2.773-59.613 8.318-84.421 5.915-25.178 14.787-46.283 26.617-63.316 11.83-17.032 26.802-29.991 44.916-38.878C434.899 4.628 456.34 0 481.109 0c49.168 0 85.397 17.588 108.686 52.763 23.66 35.176 35.49 84.421 35.49 147.737 0 63.316-11.83 112.561-35.49 147.737C566.506 383.412 530.277 401 481.109 401Zm0-61.65c24.769 0 41.959-9.256 51.571-27.77 9.981-18.883 14.972-44.247 14.972-76.09v-69.98c0-31.843-4.991-57.022-14.972-75.535-9.612-18.884-26.802-28.325-51.571-28.325s-42.144 9.441-52.125 28.325c-9.612 18.513-14.418 43.692-14.418 75.535v69.98c0 31.843 4.806 57.207 14.418 76.09 9.981 18.514 27.356 27.77 52.125 27.77ZM840.223 394.335v-74.979H664.994v-62.205L819.151 6.665h90.387v256.04H960v56.651h-50.462v74.979h-69.315Zm-115.341-131.63h115.341V77.756h-4.436L724.882 262.705Z" fill="#F2F2F2"/></svg><svg fill="none" viewBox="0 0 80 80" id="case" xmlns="http://www.w3.org/2000/svg"><g clip-path="url(#ba)"><path d="m67.657 16.983-1.886-1.886-7.071 7.071 1.886 1.886 7.07-7.071Z" fill="#EC1C24"/><path d="M72.8 17.333h-7.466V9.867c0-.667.266-1.334.8-1.867L70.8 3.333c.667-.666 1.6-.8 2.534-.533.8.4 1.333 1.2 1.333 2.133V8h3.067c.933 0 1.733.533 2.133 1.467.4.8.133 1.866-.534 2.533l-4.666 4.533c-.534.534-1.2.8-1.867.8ZM68 14.667h4.8l4-4H72v-4.8l-4 4v4.8ZM54.667 38.667C48.8 38.667 44 33.867 44 28c0-3.552 1.787-6.893 4.708-8.811.618-.406 1.424-.125 1.754.535.334.668.054 1.472-.546 1.916a8.1 8.1 0 0 0-3.25 6.493c0 4.4 3.6 8 8 8 2.628 0 4.961-1.272 6.498-3.313.435-.578 1.214-.831 1.861-.508.68.34.95 1.18.505 1.797-2.015 2.795-5.336 4.558-8.863 4.558Z" fill="#EC1C24"/><path d="M54.667 45.333c-9.6 0-17.334-7.733-17.334-17.333 0-9.6 7.734-17.333 17.334-17.333 2.476 0 4.858.475 7.064 1.505.682.32.91 1.156.544 1.814-.372.67-1.216.902-1.915.59-1.803-.805-3.748-1.243-5.693-1.243A14.624 14.624 0 0 0 40 28a14.624 14.624 0 0 0 14.667 14.667A14.624 14.624 0 0 0 69.333 28c0-1.956-.442-3.913-1.184-5.725-.281-.687-.037-1.492.611-1.853.68-.378 1.543-.124 1.856.588.96 2.186 1.517 4.541 1.517 6.99-.133 9.6-7.866 17.333-17.466 17.333Z" fill="#EC1C24"/><path d="M54.666 52c-13.2 0-24-10.8-24-24s10.8-24 24-24c2.884 0 5.667.499 8.264 1.496.674.259.967 1.036.673 1.696-.296.666-1.076.96-1.76.707-2.296-.849-4.688-1.232-7.177-1.232-11.733 0-21.333 9.6-21.333 21.333 0 11.733 9.6 21.333 21.334 21.333C66.4 49.333 76 39.733 76 28c0-2.492-.385-4.888-1.237-7.187-.25-.678.04-1.452.701-1.745.663-.295 1.442.006 1.697.684A22.983 22.983 0 0 1 78.666 28c0 13.2-10.8 24-24 24Z" fill="#EC1C24"/><path d="M18.667 68A1.333 1.333 0 1 0 16 68a1.333 1.333 0 0 0 2.667 0ZM24 68a1.333 1.333 0 1 0-2.666 0A1.333 1.333 0 0 0 24 68ZM29.333 68a1.333 1.333 0 1 0-2.666 0 1.333 1.333 0 0 0 2.666 0ZM13.333 68a1.333 1.333 0 1 0-2.666 0 1.333 1.333 0 0 0 2.666 0ZM8 68a1.333 1.333 0 1 0-2.666 0A1.333 1.333 0 0 0 8 68ZM36 50.667c0 .736-.597 1.333-1.333 1.333H28c-1.2 0-2.267-.8-2.533-2l-1.274-5.094c-.04-.16-.051-.325-.097-.482-.04-.134-.096-.25-.096-.424 0-1.467 1.2-2.667 2.667-2.667h2.666a1.333 1.333 0 0 1 0 2.667h-2.026a.5.5 0 0 0-.485.621l.989 3.955a1 1 0 0 0 .97.757h5.886c.736 0 1.333.597 1.333 1.334Z" fill="#000"/><path d="M56 74.667H5.333C2.4 74.667 0 72.267 0 69.333v-36C0 30.4 2.4 28 5.333 28h21.334a1.333 1.333 0 0 1 0 2.667H5.333a2.674 2.674 0 0 0-2.666 2.666v36C2.667 70.8 3.867 72 5.333 72H56c1.467 0 2.667-1.2 2.667-2.667V56a1.333 1.333 0 1 1 2.666 0v13.333c0 2.934-2.4 5.334-5.333 5.334Z" fill="#000"/><path d="M26.267 49.333h-4.934C17.6 49.333 14 48 11.067 45.6L.532 36.8l1.734-2L12.8 43.6c2.4 2 5.466 3.067 8.533 3.067h4.934v2.666ZM20 28a1.333 1.333 0 0 1-2.666 0v-2.667c0-2.933 2.4-5.333 5.333-5.333h4a1.333 1.333 0 1 1 0 2.667h-4A2.674 2.674 0 0 0 20 25.333V28Z" fill="#000"/><path d="M53.333 32a2.675 2.675 0 0 1-2.666-2.667c0-.266 0-.533.133-.8l2.667-8c.4-1.066 1.333-1.866 2.533-1.866.666 0 1.333.266 1.867.8L63.2 24.8c.533.533.8 1.2.8 1.867 0 1.2-.8 2.133-1.867 2.533l-8 2.667c-.267.133-.533.133-.8.133ZM56 21.333l-2.667 8c.134 0 6-2 8-2.666L56 21.333Z" fill="#EC1C24"/></g><defs><clipPath id="ba"><path fill="#fff" d="M0 0h80v80H0z"/></clipPath></defs></svg><svg viewBox="-1.12 0 15.999 15.999" id="location" xmlns="http://www.w3.org/2000/svg"><path data-name="Path 74" d="M6.882 16a1.48 1.48 0 0 1-1.048-.433l-3.818-3.818A6.837 6.837 0 0 1 0 6.882a6.833 6.833 0 0 1 2.016-4.865A6.837 6.837 0 0 1 6.882 0a6.837 6.837 0 0 1 4.866 2.016 6.833 6.833 0 0 1 2.016 4.865 6.837 6.837 0 0 1-2.016 4.867L7.93 15.566A1.48 1.48 0 0 1 6.882 16Zm0-15a5.843 5.843 0 0 0-4.159 1.723 5.889 5.889 0 0 0 0 8.318l3.818 3.818a.485.485 0 0 0 .682 0l3.818-3.818a5.889 5.889 0 0 0 0-8.318A5.843 5.843 0 0 0 6.882 1Zm0 9.159a3.281 3.281 0 0 1-3.277-3.277A3.281 3.281 0 0 1 6.882 3.6a3.281 3.281 0 0 1 3.277 3.282 3.281 3.281 0 0 1-3.277 3.277Zm0-5.559a2.28 2.28 0 0 0-2.277 2.278 2.28 2.28 0 0 0 2.277 2.281 2.28 2.28 0 0 0 2.277-2.277A2.28 2.28 0 0 0 6.882 4.6Z"/></svg><svg version="1.0" viewBox="0 0 57 56" id="logo" xmlns="http://www.w3.org/2000/svg"><path d="M19.3 3C.1 10.7-4.1 38.2 12.2 50c5.4 4 10.9 5.3 18.8 4.8 7.5-.6 13-3.1 17.6-8 3.5-3.7 7-9.8 5.5-9.8-.5 0-1.4 1.4-2.1 3-2 4.8-9.6 10.8-15.8 12.6C14.3 59-2.4 38 8.1 17.1 12.9 7.5 20.3 3 31.2 3c7.6 0 11.9 2 16.2 7.3 2.8 3.5 3.1 4.6 3.1 10.5 0 4.9-.6 7.8-2.1 10.7-3.3 6.4-11.3 10.8-12.8 7-.3-.8.8-6 2.4-11.5 3.9-12.9 3.9-13.4-.2-12.6-1.8.3-3.5 1.1-3.9 1.7-.4.7-.8.5-1.2-.5-.4-1-1.8-1.6-3.6-1.6C22.7 14 14 25.7 14 34.3c0 8.7 4.8 10.3 11.2 3.7l3.8-4.1v2.9c0 4.2 2.1 5.6 7.5 5 16.6-1.9 21.8-28 7.4-37.5C38.3.6 26.9 0 19.3 3zm12.5 15.9c.6 3.8-1.8 10.6-5 14.5-2.4 3-3.3 3.4-4.4 2.5-1-.8-1.2-2.2-.8-4.8.8-4 3.9-11.8 5.6-13.9 1.7-1.9 4.3-1 4.6 1.7z"/></svg><svg viewBox="0 0 24 24" fill="none" id="mail" xmlns="http://www.w3.org/2000/svg"><g stroke="#000" stroke-width="1.5" stroke-linecap="round"><path d="M17 20.5H7c-3 0-5-1.5-5-5v-7c0-3.5 2-5 5-5h10c3 0 5 1.5 5 5v7c0 3.5-2 5-5 5Z" stroke-miterlimit="10" stroke-linejoin="round"/><path d="m18.77 7.769-5.547 4.286a2 2 0 0 1-2.446 0L5.23 7.77"/></g></svg><svg fill="none" viewBox="0 0 1920 1080" id="map" xmlns="http://www.w3.org/2000/svg"><path fill="#F1F3F4" d="M0 0h1920v1080H0z"/><path fill-rule="evenodd" clip-rule="evenodd" d="m0 508.029 160.75 59.263 54.349-160.284L49.48 303.129 1.854 420.983 0 420.622v-48.431l32.27-79.856L0 272.094v-23.608l43.545 27.312 137.849-148.362L46.438 0h29.13l119.44 112.783L299.799 0h27.3L209.55 126.515l224.958 212.423 45.852-52.537 48.681-32.109 175.438-85.241 36.61-48.26L587.277 0h32.382l141.924 111.455 330.197 17.832L1134.7 0h12.64l-43.14 129.958 186.14 10.052 59.18 3.447L1334.61 0h12.06l14.99 144.164 135.29 7.881 45.14 11.88-39.25 98.136 120.33 116.911 13.9-11.27-82.32-216.889-28.31-63.463L1453.27 0h26.09l64.2 76.65 29.69 66.535.02.054 104.52 275.367 6.33 53.831-13.68 66.306-25.49 41.411-15.25 15.883L1920 839.701v15.667l-298.63-250.657-75.69 78.815 85.81 88.484 56.97 69.964 31.08 31.085 53.93 25.465 48.16 40.988 98.37 90.608v27.19l-111.6-102.797-.06-.052-45.81-38.985-69.5-32.818-94.41-14.753-.05-.008-103.68-13.29-6.15 53.238-19.84 40.71L1398.39 1080h-22.69l75.38-140.52.03-.07 18.15-37.255 5.79-50.092-32.69-4.192-75.04-15.419-42.15-25.287-247.28-208.014-12.83 13.249-35.06 79.859v34.816l77.32 244.84 34.51 37.385 117.83 70.7h-23.32l-102.17-61.3-37.49-40.615-78.68-249.16v-39.184l36.94-84.141 13.75-14.193-24.01-20.195L906.74 1043.3l95.81 34.82-.33 1.88h-53.044l-48.057-17.47-5.104 17.47h-20.836l7.104-24.31-26.553-9.65-17.962 33.96h-13.575l20.151-38.1-279.337-101.531L515.295 1080h-21.229l53.23-149.514-176.686-63.915L284.564 1080h-12.939l87.694-217.513-241.279-87.28-14.042 81.296 137.728 42.606L178.193 1080h-12.718l60.799-173.109-124.336-38.464L65.394 1080H45.097l53.84-311.703L0 732.507v-21.268l103.938 37.598 50.618-162.512L0 529.345v-21.316Zm325.252 320.866 10.027-34.709 43.323-125.262-102.364-37.738-4.208 17.299 35.469 15.201-38.694 111.659-45.017-13.005-9.274 26.497 110.738 40.058Zm291.496-93.489 4.172-11.716 27.263-45.043-225.916-141.699-44.333 110.414 238.814 88.044Zm41.792-73.871L433.097 520.133l78.416-80.973 186.076 175.707-29.579 31.022-9.47 15.646ZM516.592 416.449l42.831-45.401 77.97-36.363L593 245.451l-54.04 26.257-45.319 29.891-44.58 51.081 67.531 63.769Zm543.228 76.834-50.94 30.373-223.97-244.527-131.291 61.23 107.034 215.15 106.84-15.54 137.697 5.986 29.89-6.183 28.54-39.846-3.8-6.643Zm37.8 85.505-5.78 5.963 150.3 126.433 118.18-205.859-162.26-172.503-119.84 167.33 19.4 78.636Zm508.4 13.037-168.87-141.744 17.65-60.677 11.52 3.352-15.47 53.164 44.1 37.015 118.84-96.352-115.77-112.474-23.19 57.976-11.14-4.456 25.02-62.562-106.58-103.547-22.76 13.654-.42-.702-152.57 149.677 296.94 315.686.01.01.02.022.01.012 28.39 29.28 74.27-77.334Zm-111.36 56.319L1368.91 514.46l-117.44 204.573 85.36 71.802 37.85 22.713 70.96 14.581 31.71 4.065 11.93-103.217 18.54-34.899 15.62-16.259-28.77-29.664-.01-.011Zm106.75 199.955.03.004 90.29 14.108-12.19-12.185-57.03-70.036-85.14-87.804-13.19 13.736-15.46 29.101-11.53 99.714 104.22 13.362Zm-697.866-223.29-113.995 15.724-30.446-61.199-75.113 78.777-44.91 74.199-67.365 189.218 282.068 102.522 6.596-12.47-67.539-54.241 105.226-98.143-32.095-45.134 60.145-52.759 39.499-82.76-62.071-53.734ZM811.16 956.661l64.461 51.759-10.452 19.77 22.735 8.26 138.646-474.49-19.74 4.085-106.847-4.646 11.49 54.386 68.932 59.672-44.501 93.24-53.855 47.241 31.905 44.866-102.774 95.857Zm199.96-448.317L715.722 185.823l1.799-.874 46.537-61.343 323.802 17.487-27.89 84.043 128.79 100.062-117.45 163.995-7.13-12.476-53.06 31.627ZM216.212 747.66l44.983 12.995 31.307-90.341-34.532-14.799 6.934-28.508-91.558-33.755-50.582 162.395 80.465 29.108 12.983-37.095Zm120.348 85.326 217.444 78.658 56.036-157.395-220.176-81.173-43.143 124.739-10.161 35.171Zm30.11-189.777 45.267-112.74-82.5-51.746-47.914 133.095 85.147 31.391Zm56.035-129.595 80.083-82.693-70.906-66.955-92.292 97.517 83.115 52.131Zm288.686 86.778L525.317 424.687l41.259-43.735 76.164-35.52 106.888 214.857-38.237 40.103Zm65.021-330.541-128.14 59.76-44.478-89.405 100.667-48.911 71.951 78.556ZM1045.53 545.79l37.11 31.217 1.74-1.795-15.36-62.225-23.49 32.803Zm568.82 37.36-110.03-92.357 118.14-95.789 36.6 35.558 4.82 41.001-12.32 59.694-22.52 36.59-14.69 15.303Zm17.49-195.757 20.13 19.554-10.41-27.431-9.72 7.877Zm-280.11-222.65-154.65 151.719-123.05-95.598 26.26-79.101 189.37 10.227.01.001 61.11 3.56.95 9.192Zm11.19-8.485.27 2.631 3.97-2.384-4.24-.247ZM868.507 560.031l-98.478 14.325 26.423 53.111 102.225-14.1-11.092-52.506-19.078-.83Zm657.403-387.956-32.38 80.943-97.62-94.838 99.14 5.775 30.86 8.12ZM60.794 286.617l165.458 103.778 104.851-121.592-135.167-127.636-135.142 145.45Zm209.469 321.05 48.769-135.47-86.518-54.266-52.993 156.282 90.742 33.454Zm-26.872-206.522 85.831 53.835 93.935-99.252-77.498-73.18-102.268 118.597Z" fill="#BDCAD0"/><path d="M1920 581.225v13.787l-61.94-35.044 60-237.234 1.94.241v41.033l-48.06 190.024 48.06 27.193ZM1920 237.792v12.09l-35.64 4.363-41.91-30.884-11.48-74.598-45.88 6.423-139.3-64.058L1534.73 0h18.92l98.56 80.872 134.7 61.942 54.12-7.577 12.52 81.402 34.09 25.116 32.36-3.963ZM1515.04 0h14.64l39.78 56.911 37.28 31.232 36.35 67.663 79.94 110.292-9.71 7.042-80.41-110.945-35.65-66.338-36.72-30.768L1515.04 0Z" fill="#BDCAD0"/><path fill-rule="evenodd" clip-rule="evenodd" d="m0 510.16 161.984 59.719L217.5 406.154 48.52 300.166 0 420.233v-42.704l34.753-85.998L0 269.733v-18.887l43.884 27.526L184.21 127.344 49.351 0h23.305L195.1 115.622 302.529 0h21.84L206.734 126.607l227.913 215.214 47.041-53.9 48.345-31.888 175.75-85.392 38.089-50.208L590.515 0h25.905l144.425 113.418 332.355 17.948L1136.8 0h8.43l-43.75 131.813 188.74 10.193 61.53 3.584L1336.62 0h8.04l15.18 146.062 136.79 7.968 42.76 11.253-38.91 97.279 122.57 119.082 16.41-13.299-82.86-218.293-28.45-63.772L1455.88 0h20.87l65.1 77.72 29.55 66.228 104.43 275.136 6.27 53.266-13.55 65.645-25.19 40.928-16.58 17.271L1920 842.312v10.444l-298.78-250.779-78.31 81.555 87.08 89.808 56.98 69.976 31.41 31.403 54 25.5 47.92 40.79 99.7 91.821v21.76l-110.3-101.6-46.08-39.209-69.99-33.055-94.76-14.805-105.73-13.556-6.35 54.911-19.67 40.368-71 132.356h-18.15l74.91-139.644 18.33-37.632 6.06-52.394-34.59-4.433-74.63-15.335-41.71-25.03-248.58-209.111-14.39 14.846-35.37 80.572v35.544l77.55 245.56 35 37.927 115.22 69.13h-15.54l-104.78-62.87-37-40.073-78.45-248.44v-38.456l36.63-83.428 14.99-15.475-28-23.551-139.326 476.833 97.576 35.46h-46.839l-55.233-20.08-5.866 20.08h-16.669l7.466-25.55-29.953-10.89-19.27 36.44h-9.05l20.729-39.2-283.387-102.998L513.172 1080h-16.983l53.659-150.718-180.371-65.247L282.408 1080h-8.626l88.167-218.689-245.474-88.797-14.747 85.38 137.423 42.512L176.074 1080h-8.479l61.255-174.406-128.495-39.751L63.364 1080H47.127l54.066-313.014L0 730.38v-17.014l105.225 38.064 51.806-166.324L0 527.213V510.16Zm555.214 404.048L334.119 834.23l10.695-37.02 43.827-126.716 223.947 82.562-57.374 161.152ZM337.186 794.79l43.947-127.064-106.308-39.193-5.138 21.124 35.312 15.134-37.462 108.105-45.012-13.003-10.553 30.151 114.608 41.459 10.606-36.713Zm280.768-56.808-242.643-89.455 45.991-114.545 229.611 144.016-28.177 46.554-4.782 13.43Zm-250.152-92.224 46.614-116.095-86.02-53.954-49.428 137.299 88.834 32.75Zm291.397 18.551L429.943 520.515l81.507-84.165 188.973 178.443-30.815 32.318-10.409 17.198Zm-236.184-148.14 82.618-85.312-73.83-69.716L336.46 461.88l86.555 54.289Zm288.449 87.044L522.491 424.769l42.893-45.467 78.278-36.507 108.382 217.859-40.58 42.559ZM560.616 372.698l79.482-37.067-46.189-92.845-55.942 27.181-45.655 30.112-46.022 52.735 70.384 66.463 43.942-46.579Zm198.892 184.999L650.915 339.413l134.479-62.717 223.856 244.408 51.3-30.582 5.44 9.526-29.74 41.524-30.9 6.392-137.756-5.989-108.086 15.722ZM647.35 332.248l132.379-61.737-74.8-81.667-103.824 50.446 46.245 92.958ZM1088.92 584.9l153.77 129.355 120.1-209.221-164.94-175.354-121.8 170.056 19.36 78.456-6.49 6.708Zm-18.99-76.607-27.1 37.837 39.95 33.608 3.81-3.93-16.66-67.515Zm560.71 60.784-16.14 16.807-113.33-95.118 121.41-98.434 38.38 37.291 4.94 42.027-12.45 60.355-22.81 37.072Zm-182.07-122.464 46.36 38.915 121.87-98.81-119.53-116.124-23.56 58.892-7.42-2.972 24.78-61.948-108.65-105.553-22.36 13.417-.7-1.162-155.78 152.825 298.29 317.122.04.044 29.85 30.78 77.18-80.371-169.51-142.281 16.73-57.504 7.68 2.234-15.27 52.496Zm193.88-70.393-13.62 11.038 28.21 27.399-14.59-38.437Zm-116.23 301.592-30.11-31.049-127.59-135.639-119.61 208.364 86.75 72.98 38.29 22.97 71.37 14.665 33.78 4.332 12.13-104.853 18.23-34.319 16.76-17.451Zm-31.24 158.658 106.15 13.609 96.35 15.055-16.45-16.45-57.02-70.024-86.65-89.354-14.82 15.431-15.77 29.681-11.79 102.052Zm-640.243 190.05L569.164 922.729l68.1-191.281 45.128-74.559 77.232-80.999 31.075 62.465 113.469-15.651 63.909 55.325-40.333 84.506-59.097 51.84 32.063 45.089-104.817 97.762 67.027 53.824-8.183 15.47Zm34.489 12.54-26.898-9.78 10.752-20.33-64.973-52.176 103.183-96.238-31.937-44.911 54.903-48.16 43.667-91.494-68.288-59.114-12.162-57.568 109.177 4.747 22.75-4.708-140.174 479.732Zm464.594-873.565-156.59 153.619-125.54-97.538 27.18-81.892 190.9 10.309.01.001 62.81 3.659 1.23 11.842Zm7.7-3.275-.84-8.096 13.07.761-12.23 7.335Zm-270.93-22.983-327.484-17.685-46.889 61.807-3.781 1.838 298.314 325.699 52.7-31.418 7.67 13.414 120.39-168.093-129.2-100.375 28.28-85.187ZM889.221 558.93l-20.815-.905-101.397 14.749 28.292 56.871 105.777-14.59-11.857-56.125Zm605.059-302.397 34.33-85.816-33.24-8.747-104.7-6.099 103.61 100.662ZM57.683 287.026l168.962 105.976 107.221-124.341-138.023-130.332-138.16 148.697Zm62.603 469.852 84.163 30.445 13.026-37.216 44.988 12.997 32.538-93.895-34.688-14.866 6.956-28.596-95.206-35.099-51.777 166.23ZM321.46 471.359l-49.998 138.882-94.46-34.825 54.43-160.524 90.028 56.467Zm-81.104-69.757 89.192 55.943 96.438-101.897-80.475-75.991-105.155 121.945Z" fill="#fff"/><path d="M1920 583.523v9.191l-59.63-33.736L1920 323.224v32.627l-50.37 199.171 50.37 28.501ZM1920 239.807v8.06l-35.09 4.297-40.61-29.923-11.65-75.733-47.26 6.616-138.53-63.705L1537.88 0h12.61l100.65 82.581 135.47 62.295 52.74-7.384 12.35 80.267 35.39 26.077 32.91-4.029ZM1517.48 0l44.55 63.726 36.81 30.846 35.76 66.558 79.16 109.217 6.48-4.694-78.84-108.783-36.24-67.442-37.19-31.154L1527.24 0h-9.76Z" fill="#fff"/></svg><svg viewBox="0 0 32 32" id="phone" xmlns="http://www.w3.org/2000/svg"><path d="M30.424 21.094a1.255 1.255 0 0 0-.868-.589l-.007-.001-8.969-1.424a1.278 1.278 0 0 0-1.08.35 6.672 6.672 0 0 0-1.429 2.14l-.016.044c-3.506-1.573-6.252-4.319-7.785-7.729l-.039-.097a6.668 6.668 0 0 0 2.182-1.445 1.248 1.248 0 0 0 .349-1.089l.001.007-1.423-8.97a1.252 1.252 0 0 0-.587-.873l-.006-.003A5.427 5.427 0 0 0 8.881.731L8.848.726A5.414 5.414 0 0 0 7.687.604h-.071.004-.01A6.894 6.894 0 0 0 .766 7.455v.002c.015 13.037 10.579 23.601 23.615 23.616h.001a6.893 6.893 0 0 0 6.854-6.849v-.002l.001-.098c0-.373-.039-.737-.114-1.088l.006.034a5.601 5.601 0 0 0-.719-2.004l.014.026zm-6.041 7.482C12.726 28.562 3.28 19.117 3.267 7.461V7.46a4.389 4.389 0 0 1 4.359-4.354H7.662c.249 0 .492.027.726.079l-.022-.004c.233.039.438.093.635.163l-.025-.008 1.21 7.634a4.309 4.309 0 0 1-1.807.768l-.026.004a1.253 1.253 0 0 0-.962 1.648l-.003-.009c1.824 5.217 5.859 9.252 10.951 11.038l.125.038a1.252 1.252 0 0 0 1.047-.107l-.006.003c.311-.184.532-.492.597-.854l.001-.008a4.364 4.364 0 0 1 .78-1.846l-.009.012 7.633 1.211c.068.193.129.425.17.663l.004.026c.037.177.057.381.057.589l-.001.073v-.004a4.383 4.383 0 0 1-4.352 4.359h-.002zm-2.838-16.55.022.015.015.021c.072.058.154.109.241.15l.007.003c.04.029.086.057.133.083l.007.003a1.216 1.216 0 0 0 .947-.015l-.008.003c.051-.03.095-.06.136-.091l-.003.002a1.22 1.22 0 0 0 .271-.181l-.001.001.015-.023.02-.014 7.574-8.279a1.25 1.25 0 0 0-1.843-1.688l-.001.001-6.695 7.319-1.601-1.59a1.25 1.25 0 0 0-1.762 1.773z"/></svg><svg fill="none" viewBox="0 0 80 80" id="speed" xmlns="http://www.w3.org/2000/svg"><g clip-path="url(#ha)"><path d="M46.576 43.384a2 2 0 0 1-2.31.129L34 37.067l1.333-2.134 9.268 5.761a1 1 0 0 0 1.15-.066l5.316-4.228 1.6 2.133-6.091 4.85Z" fill="#EC1C24"/><path d="M35.733 43.513a2 2 0 0 1-2.309-.13l-6.091-4.85 1.6-2.133 5.315 4.228a1 1 0 0 0 1.15.066l9.268-5.76L46 37.066l-10.267 6.446Z" fill="#EC1C24"/><path d="M41.333 39.333h-2.667v12.8h2.667v-12.8Z" fill="#EC1C24"/><path d="M68 29.333c-4.4 0-8-3.6-8-8v-2.666c0-4.4 3.6-8 8-8s8 3.6 8 8v2.666c0 4.4-3.6 8-8 8Zm0-16c-2.933 0-5.333 2.4-5.333 5.334v2.666c0 2.934 2.4 5.334 5.333 5.334 2.933 0 5.333-2.4 5.333-5.334v-2.666c0-2.934-2.4-5.334-5.333-5.334ZM12 29.333c-4.4 0-8-3.6-8-8v-2.666c0-4.4 3.6-8 8-8s8 3.6 8 8v2.666c0 4.4-3.6 8-8 8Zm0-16c-2.933 0-5.333 2.4-5.333 5.334v2.666c0 2.934 2.4 5.334 5.333 5.334 2.933 0 5.333-2.4 5.333-5.334v-2.666c0-2.934-2.4-5.334-5.333-5.334ZM77.333 66.8a1.333 1.333 0 1 0 2.667 0 1.333 1.333 0 0 0-2.667 0ZM77.333 72.133a1.333 1.333 0 1 0 2.667 0 1.333 1.333 0 0 0-2.667 0ZM0 69.333a1.333 1.333 0 1 0 2.667 0 1.333 1.333 0 0 0-2.667 0ZM2.667 64A1.333 1.333 0 1 1 0 64V38.667C0 34.933 2.933 32 6.667 32h10.666C21.067 32 24 34.933 24 38.667v2.666h-2.667v-2.666c0-2.267-1.733-4-4-4H6.667c-2.267 0-4 1.733-4 4V64ZM80 61.467a1.333 1.333 0 0 1-2.667 0v-24c0-.934-1.733-2.8-4-2.8H62.667c-2.267 0-4 1.733-4 4v2.666H56v-2.666C56 34.933 58.933 32 62.667 32h10.666C77.067 32 80 34.933 80 37.467v24Z" fill="#000"/><path d="M12 37.333a2.674 2.674 0 0 1-2.667-2.666C9.333 33.2 10.533 32 12 32c1.466 0 2.666 1.2 2.666 2.667 0 1.466-1.2 2.666-2.666 2.666ZM68 37.333a2.674 2.674 0 0 1-2.667-2.666C65.333 33.2 66.533 32 68 32c1.466 0 2.666 1.2 2.666 2.667 0 1.466-1.2 2.666-2.666 2.666Z" fill="#000"/><path d="M13.334 46.667v-9.334a1.333 1.333 0 0 0-2.667 0v9.334a1.333 1.333 0 0 0 2.667 0ZM69.334 36h-2.667v10.667a1.333 1.333 0 0 0 2.667 0V36Z" fill="#000"/><path d="M30.462 57.212a2 2 0 0 1-2.482-2.267l1.4-8.306a1.348 1.348 0 1 1 2.657.448l-.98 5.786a1 1 0 0 0 1.24 1.134l17.302-4.54.667 2.533-19.804 5.212Z" fill="#EC1C24"/><path d="m42.672 51.437-12.215-2.808-.597 2.6 12.215 2.807.597-2.6ZM40 33.333c-5.867 0-10.667-4.8-10.667-10.666v-1.334a1.333 1.333 0 0 1 2.666 0v1.334c0 4.4 3.6 8 8 8s8-3.6 8-8v-8C48 10.933 45.066 8 41.333 8h-5.2c-2.667 0-4.534-1.067-6-2.267-.134.267-.134.667-.134.934-.533 2.266-.666 2.666-.666 3.466 0 1.834 2.017 5.236 6.668 5.79.73.087 1.332.674 1.332 1.41 0 .737-.6 1.341-1.333 1.27-6.078-.582-9.334-5.108-9.334-8.47 0-1.066.133-1.733.667-4.133.133-.8.4-1.733.666-3.067a1.44 1.44 0 0 1 2.323-.776l.61.51c1.6 1.466 2.934 2.533 5.334 2.533h5.067c5.2 0 9.333 4.133 9.333 9.333v8c0 6-4.8 10.8-10.667 10.8ZM29.333 65.333h-2.667v13.334a1.333 1.333 0 0 0 2.667 0V65.333ZM53.333 65.333h-2.667v13.334a1.333 1.333 0 0 0 2.667 0V65.333Z" fill="#EC1C24"/><path d="M27.466 66.667c-4.8 0-8.8-4-8.8-8.8 0-.4 0-.8.133-1.334l2-13.6c.534-3.2 2.934-5.866 6.267-6.666l6.533-1.467.8-4.267 2.667.534-1.067 6-8.266 1.733c-2.134.533-3.867 2.267-4.134 4.4l-2.266 13.733v.934c0 3.333 2.8 6.133 6.133 6.133 1.067 0 2.133-.267 3.2-.667l18.178-7.168a1 1 0 0 0 .618-1.1l-1.364-7.974a1.35 1.35 0 0 1 2.66-.459l1.629 9.363a2 2 0 0 1-1.236 2.203l-19.418 7.669c-1.467.533-2.8.8-4.267.8Z" fill="#EC1C24"/><path d="M52.532 66.667c-1.466 0-2.8-.267-4.133-.8L39.466 62.4l.933-2.533 8.934 3.466c1.066.4 2 .667 3.2.667 3.333 0 6.133-2.8 6.133-6.133v-.934l-2-13.6c-.267-2.133-2-4-4.133-4.4L44.266 37.2l-1.067-6 2.667-.533.8 4.266 6.533 1.467c3.2.667 5.733 3.333 6.267 6.667l2 13.6c0 .4.133.8.133 1.333-.266 4.667-4.266 8.667-9.066 8.667Z" fill="#EC1C24"/></g><defs><clipPath id="ha"><path fill="#fff" d="M0 0h80v80H0z"/></clipPath></defs></svg><svg viewBox="0 0 24 24" fill="none" id="tg" xmlns="http://www.w3.org/2000/svg"><path d="M18 8 5 12.5 9.5 14M18 8l-8.5 6M18 8l-4 10.5L9.5 14" stroke="#000" stroke-width="1.5" stroke-linecap="round" stroke-linejoin="round"/><path d="M12 22c5.523 0 10-4.477 10-10S17.523 2 12 2 2 6.477 2 12s4.477 10 10 10Z" stroke="#000" stroke-width="1.5" stroke-linecap="round" stroke-linejoin="round"/></svg><svg viewBox="0 0 16 16" id="whatsapp" xmlns="http://www.w3.org/2000/svg"><path d="M11.42 9.49c-.19-.09-1.1-.54-1.27-.61s-.29-.09-.42.1-.48.6-.59.73-.21.14-.4 0a5.13 5.13 0 0 1-1.49-.92 5.25 5.25 0 0 1-1-1.29c-.11-.18 0-.28.08-.38s.18-.21.28-.32a1.39 1.39 0 0 0 .18-.31.38.38 0 0 0 0-.33c0-.09-.42-1-.58-1.37s-.3-.32-.41-.32h-.4a.72.72 0 0 0-.5.23 2.1 2.1 0 0 0-.65 1.55A3.59 3.59 0 0 0 5 8.2 8.32 8.32 0 0 0 8.19 11c.44.19.78.3 1.05.39a2.53 2.53 0 0 0 1.17.07 1.93 1.93 0 0 0 1.26-.88 1.67 1.67 0 0 0 .11-.88c-.05-.07-.17-.12-.36-.21z"/><path d="M13.29 2.68A7.36 7.36 0 0 0 8 .5a7.44 7.44 0 0 0-6.41 11.15l-1 3.85 3.94-1a7.4 7.4 0 0 0 3.55.9H8a7.44 7.44 0 0 0 5.29-12.72zM8 14.12a6.12 6.12 0 0 1-3.15-.87l-.22-.13-2.34.61.62-2.28-.14-.23a6.18 6.18 0 0 1 9.6-7.65 6.12 6.12 0 0 1 1.81 4.37A6.19 6.19 0 0 1 8 14.12z"/></svg></svg>