<svg width="80" height="80" viewBox="0 0 80 80" fill="none" xmlns="http://www.w3.org/2000/svg">
<g clip-path="url(#clip0)">
<path d="M67.6566 16.9826L65.771 15.097L58.7 22.168L60.5856 24.0536L67.6566 16.9826Z" fill="#EC1C24"></path>
<path d="M72.8002 17.3333H65.3335V9.86667C65.3335 9.2 65.6002 8.53333 66.1335 8L70.8002 3.33333C71.4668 2.66667 72.4002 2.53333 73.3335 2.8C74.1335 3.2 74.6668 4 74.6668 4.93333V8H77.7335C78.6668 8 79.4668 8.53333 79.8668 9.46667C80.2668 10.2667 80.0002 11.3333 79.3335 12L74.6668 16.5333C74.1335 17.0667 73.4668 17.3333 72.8002 17.3333ZM68.0002 14.6667H72.8002L76.8002 10.6667H72.0002V5.86667L68.0002 9.86667V14.6667Z" fill="#EC1C24"></path>
<path d="M54.6667 38.6667C48.8 38.6667 44 33.8667 44 28C44 24.4481 45.7873 21.1065 48.7083 19.1887C49.3258 18.7833 50.1319 19.0637 50.4622 19.7244C50.796 20.3921 50.5161 21.1956 49.9164 21.6401C47.9124 23.1255 46.6667 25.5336 46.6667 28.1333C46.6667 32.5333 50.2667 36.1333 54.6667 36.1333C57.2937 36.1333 59.6272 34.8613 61.1643 32.8203C61.5994 32.2425 62.3781 31.989 63.025 32.3125C63.7046 32.6523 63.9746 33.4928 63.5302 34.1091C61.5149 36.9036 58.1945 38.6667 54.6667 38.6667Z" fill="#EC1C24"></path>
<path d="M54.6668 45.3333C45.0668 45.3333 37.3335 37.6 37.3335 28C37.3335 18.4 45.0668 10.6667 54.6668 10.6667C57.1433 10.6667 59.5247 11.1418 61.7309 12.1724C62.4133 12.4912 62.6403 13.3277 62.2745 13.9862C61.9027 14.6555 61.0594 14.8882 60.3602 14.5761C58.5571 13.7712 56.612 13.3333 54.6668 13.3333C46.5335 13.3333 40.0002 19.8667 40.0002 28C40.0002 36.1333 46.5335 42.6667 54.6668 42.6667C62.8002 42.6667 69.3335 36.1333 69.3335 28C69.3335 26.0435 68.8905 24.087 68.1489 22.275C67.8677 21.5881 68.1117 20.7825 68.7605 20.422C69.4406 20.0442 70.3034 20.2981 70.6162 21.0103C71.576 23.1956 72.1335 25.5513 72.1335 28C72.0002 37.6 64.2668 45.3333 54.6668 45.3333Z" fill="#EC1C24"></path>
<path d="M54.6665 52C41.4665 52 30.6665 41.2 30.6665 28C30.6665 14.8 41.4665 4 54.6665 4C57.5495 4 60.3327 4.4987 62.93 5.49609C63.6043 5.75503 63.8967 6.53214 63.6033 7.19218C63.3072 7.85833 62.5272 8.15213 61.8435 7.89936C59.5471 7.05044 57.1548 6.66667 54.6665 6.66667C42.9332 6.66667 33.3332 16.2667 33.3332 28C33.3332 39.7333 42.9332 49.3333 54.6665 49.3333C66.3998 49.3333 75.9998 39.7333 75.9998 28C75.9998 25.5081 75.6149 23.1124 74.7634 20.8129C74.5123 20.1349 74.8037 19.3612 75.4644 19.0676C76.1267 18.7732 76.9057 19.074 77.1611 19.7522C78.1647 22.4169 78.6665 25.1081 78.6665 28C78.6665 41.2 67.8665 52 54.6665 52Z" fill="#EC1C24"></path>
<path d="M18.6667 68C18.6667 67.2636 18.0697 66.6667 17.3333 66.6667C16.597 66.6667 16 67.2636 16 68C16 68.7364 16.597 69.3333 17.3333 69.3333C18.0697 69.3333 18.6667 68.7364 18.6667 68Z" fill="black"></path>
<path d="M24.0002 68C24.0002 67.2636 23.4032 66.6667 22.6668 66.6667C21.9304 66.6667 21.3335 67.2636 21.3335 68C21.3335 68.7364 21.9304 69.3333 22.6668 69.3333C23.4032 69.3333 24.0002 68.7364 24.0002 68Z" fill="black"></path>
<path d="M29.3332 68C29.3332 67.2636 28.7362 66.6667 27.9998 66.6667C27.2635 66.6667 26.6665 67.2636 26.6665 68C26.6665 68.7364 27.2635 69.3333 27.9998 69.3333C28.7362 69.3333 29.3332 68.7364 29.3332 68Z" fill="black"></path>
<path d="M13.3332 68C13.3332 67.2636 12.7362 66.6667 11.9998 66.6667C11.2635 66.6667 10.6665 67.2636 10.6665 68C10.6665 68.7364 11.2635 69.3333 11.9998 69.3333C12.7362 69.3333 13.3332 68.7364 13.3332 68Z" fill="black"></path>
<path d="M8.00016 68C8.00016 67.2636 7.40321 66.6667 6.66683 66.6667C5.93045 66.6667 5.3335 67.2636 5.3335 68C5.3335 68.7364 5.93045 69.3333 6.66683 69.3333C7.40321 69.3333 8.00016 68.7364 8.00016 68Z" fill="black"></path>
<path d="M36 50.6667C36 51.4031 35.403 52 34.6667 52H28C26.8 52 25.7333 51.2 25.4667 50L24.193 44.9055C24.1534 44.7469 24.142 44.5811 24.0958 44.4242C24.0563 44.2903 24 44.1733 24 44C24 42.5333 25.2 41.3333 26.6667 41.3333H29.3333C30.0697 41.3333 30.6667 41.9303 30.6667 42.6667C30.6667 43.4031 30.0697 44 29.3333 44H27.3071C26.9818 44 26.7431 44.3057 26.822 44.6213L27.8106 48.5759C27.9219 49.021 28.3219 49.3333 28.7808 49.3333H34.6667C35.403 49.3333 36 49.9303 36 50.6667Z" fill="black"></path>
<path d="M56 74.6667H5.33333C2.4 74.6667 0 72.2667 0 69.3333V33.3333C0 30.4 2.4 28 5.33333 28H26.6667C27.403 28 28 28.597 28 29.3333C28 30.0697 27.403 30.6667 26.6667 30.6667H5.33333C3.86667 30.6667 2.66667 31.8667 2.66667 33.3333V69.3333C2.66667 70.8 3.86667 72 5.33333 72H56C57.4667 72 58.6667 70.8 58.6667 69.3333V56C58.6667 55.2636 59.2636 54.6667 60 54.6667C60.7364 54.6667 61.3333 55.2636 61.3333 56V69.3333C61.3333 72.2667 58.9333 74.6667 56 74.6667Z" fill="black"></path>
<path d="M26.2665 49.3333H21.3332C17.5999 49.3333 13.9999 48 11.0665 45.6L0.533203 36.8L2.26654 34.8L12.7999 43.6C15.1999 45.6 18.2665 46.6667 21.3332 46.6667H26.2665V49.3333Z" fill="black"></path>
<path d="M20.0002 28C20.0002 28.7364 19.4032 29.3333 18.6668 29.3333C17.9304 29.3333 17.3335 28.7364 17.3335 28V25.3333C17.3335 22.4 19.7335 20 22.6668 20H26.6668C27.4032 20 28.0002 20.597 28.0002 21.3333C28.0002 22.0697 27.4032 22.6667 26.6668 22.6667H22.6668C21.2002 22.6667 20.0002 23.8667 20.0002 25.3333V28Z" fill="black"></path>
<path d="M53.3332 32C51.8665 32 50.6665 30.8 50.6665 29.3333C50.6665 29.0667 50.6665 28.8 50.7998 28.5333C50.7998 28.5333 52.7998 22.5333 53.4665 20.5333C53.8665 19.4667 54.7998 18.6667 55.9998 18.6667C56.6665 18.6667 57.3332 18.9333 57.8665 19.4667L63.1998 24.8C63.7332 25.3333 63.9998 26 63.9998 26.6667C63.9998 27.8667 63.1998 28.8 62.1332 29.2C60.1332 29.8667 54.1332 31.8667 54.1332 31.8667C53.8665 32 53.5998 32 53.3332 32ZM55.9998 21.3333C55.3332 23.3333 53.3332 29.3333 53.3332 29.3333C53.4665 29.3333 59.3332 27.3333 61.3332 26.6667L55.9998 21.3333Z" fill="#EC1C24"></path>
</g>
<defs>
<clipPath id="clip0">
<rect width="80" height="80" fill="white"></rect>
</clipPath>
</defs>
</svg>