<?xml version="1.0" standalone="no"?>
<!DOCTYPE svg PUBLIC "-//W3C//DTD SVG 20010904//EN"
 "http://www.w3.org/TR/2001/REC-SVG-20010904/DTD/svg10.dtd">
<svg version="1.0" xmlns="http://www.w3.org/2000/svg"
 width="57.000000pt" height="56.000000pt" viewBox="0 0 57.000000 56.000000"
 preserveAspectRatio="xMidYMid meet">

<g transform="translate(0.000000,56.000000) scale(0.100000,-0.100000)"
fill="#000000" stroke="none">
<path d="M193 530 c-192 -77 -234 -352 -71 -470 54 -40 109 -53 188 -48 75 6
130 31 176 80 35 37 70 98 55 98 -5 0 -14 -14 -21 -30 -20 -48 -96 -108 -158
-126 -219 -64 -386 146 -281 355 48 96 122 141 231 141 76 0 119 -20 162 -73
28 -35 31 -46 31 -105 0 -49 -6 -78 -21 -107 -33 -64 -113 -108 -128 -70 -3 8
8 60 24 115 39 129 39 134 -2 126 -18 -3 -35 -11 -39 -17 -4 -7 -8 -5 -12 5
-4 10 -18 16 -36 16 -64 0 -151 -117 -151 -203 0 -87 48 -103 112 -37 l38 41
0 -29 c0 -42 21 -56 75 -50 166 19 218 280 74 375 -56 37 -170 43 -246 13z
m125 -159 c6 -38 -18 -106 -50 -145 -24 -30 -33 -34 -44 -25 -10 8 -12 22 -8
48 8 40 39 118 56 139 17 19 43 10 46 -17z"/>
</g>
</svg>
