<svg width="80" height="80" viewBox="0 0 80 80" fill="none" xmlns="http://www.w3.org/2000/svg">
<g clip-path="url(#clip0)">
<path d="M46.5756 43.3837C45.9113 43.9126 44.9853 43.9644 44.2662 43.5129L34 37.0667L35.3333 34.9333L44.6013 40.6945C44.9603 40.9177 45.4209 40.891 45.7517 40.6278L51.0667 36.4L52.6667 38.5333L46.5756 43.3837Z" fill="#EC1C24"></path>
<path d="M35.7335 43.5129C35.0143 43.9644 34.0884 43.9126 33.4241 43.3837L27.333 38.5333L28.933 36.4L34.248 40.6278C34.5788 40.891 35.0394 40.9177 35.3984 40.6945L44.6663 34.9333L45.9997 37.0667L35.7335 43.5129Z" fill="#EC1C24"></path>
<path d="M41.3327 39.3333H38.666V52.1333H41.3327V39.3333Z" fill="#EC1C24"></path>
<path d="M68 29.3333C63.6 29.3333 60 25.7333 60 21.3333V18.6667C60 14.2667 63.6 10.6667 68 10.6667C72.4 10.6667 76 14.2667 76 18.6667V21.3333C76 25.7333 72.4 29.3333 68 29.3333ZM68 13.3333C65.0667 13.3333 62.6667 15.7333 62.6667 18.6667V21.3333C62.6667 24.2667 65.0667 26.6667 68 26.6667C70.9333 26.6667 73.3333 24.2667 73.3333 21.3333V18.6667C73.3333 15.7333 70.9333 13.3333 68 13.3333Z" fill="black"></path>
<path d="M12 29.3333C7.6 29.3333 4 25.7333 4 21.3333V18.6667C4 14.2667 7.6 10.6667 12 10.6667C16.4 10.6667 20 14.2667 20 18.6667V21.3333C20 25.7333 16.4 29.3333 12 29.3333ZM12 13.3333C9.06667 13.3333 6.66667 15.7333 6.66667 18.6667V21.3333C6.66667 24.2667 9.06667 26.6667 12 26.6667C14.9333 26.6667 17.3333 24.2667 17.3333 21.3333V18.6667C17.3333 15.7333 14.9333 13.3333 12 13.3333Z" fill="black"></path>
<path d="M77.333 66.8C77.333 67.5364 77.93 68.1333 78.6663 68.1333C79.4027 68.1333 79.9997 67.5364 79.9997 66.8C79.9997 66.0636 79.4027 65.4667 78.6663 65.4667C77.93 65.4667 77.333 66.0636 77.333 66.8Z" fill="black"></path>
<path d="M77.333 72.1333C77.333 72.8697 77.93 73.4667 78.6663 73.4667C79.4027 73.4667 79.9997 72.8697 79.9997 72.1333C79.9997 71.397 79.4027 70.8 78.6663 70.8C77.93 70.8 77.333 71.397 77.333 72.1333Z" fill="black"></path>
<path d="M0 69.3333C0 70.0697 0.596954 70.6667 1.33333 70.6667C2.06971 70.6667 2.66667 70.0697 2.66667 69.3333C2.66667 68.597 2.06971 68 1.33333 68C0.596954 68 0 68.597 0 69.3333Z" fill="black"></path>
<path d="M2.66667 64C2.66667 64.7364 2.06971 65.3333 1.33333 65.3333C0.596954 65.3333 0 64.7364 0 64V38.6667C0 34.9333 2.93333 32 6.66667 32H17.3333C21.0667 32 24 34.9333 24 38.6667V41.3333H21.3333V38.6667C21.3333 36.4 19.6 34.6667 17.3333 34.6667H6.66667C4.4 34.6667 2.66667 36.4 2.66667 38.6667V64Z" fill="black"></path>
<path d="M80 61.4667C80 62.203 79.403 62.8 78.6667 62.8C77.9303 62.8 77.3333 62.203 77.3333 61.4667V37.4667C77.3333 36.5333 75.6 34.6667 73.3333 34.6667H62.6667C60.4 34.6667 58.6667 36.4 58.6667 38.6667V41.3333H56V38.6667C56 34.9333 58.9333 32 62.6667 32H73.3333C77.0667 32 80 34.9333 80 37.4667V61.4667Z" fill="black"></path>
<path d="M11.9997 37.3333C10.533 37.3333 9.33301 36.1333 9.33301 34.6667C9.33301 33.2 10.533 32 11.9997 32C13.4663 32 14.6663 33.2 14.6663 34.6667C14.6663 36.1333 13.4663 37.3333 11.9997 37.3333Z" fill="black"></path>
<path d="M67.9997 37.3333C66.533 37.3333 65.333 36.1333 65.333 34.6667C65.333 33.2 66.533 32 67.9997 32C69.4663 32 70.6663 33.2 70.6663 34.6667C70.6663 36.1333 69.4663 37.3333 67.9997 37.3333Z" fill="black"></path>
<path d="M13.3337 46.6667V37.3333C13.3337 36.597 12.7367 36 12.0003 36C11.2639 36 10.667 36.597 10.667 37.3333V46.6667C10.667 47.403 11.2639 48 12.0003 48C12.7367 48 13.3337 47.403 13.3337 46.6667Z" fill="black"></path>
<path d="M69.3337 36H66.667V46.6667C66.667 47.403 67.2639 48 68.0003 48C68.7367 48 69.3337 47.403 69.3337 46.6667V36Z" fill="black"></path>
<path d="M30.4615 57.2117C29.0569 57.5813 27.7391 56.3776 27.9803 54.9454L29.3793 46.6385C29.5014 45.9139 30.1814 45.4207 30.908 45.5297C31.6538 45.6415 32.1625 46.3436 32.0367 47.0871L31.0576 52.8727C30.9364 53.5888 31.5949 54.1912 32.2974 54.0068L49.5992 49.4667L50.2658 52L30.4615 57.2117Z" fill="#EC1C24"></path>
<path d="M42.672 51.4367L30.457 48.6292L29.8597 51.2281L42.0747 54.0356L42.672 51.4367Z" fill="#EC1C24"></path>
<path d="M39.9993 33.3333C34.1327 33.3333 29.3327 28.5333 29.3327 22.6667V21.3333C29.3327 20.597 29.9296 20 30.666 20C31.4024 20 31.9993 20.597 31.9993 21.3333V22.6667C31.9993 27.0667 35.5993 30.6667 39.9993 30.6667C44.3993 30.6667 47.9993 27.0667 47.9993 22.6667V14.6667C47.9993 10.9333 45.066 8 41.3327 8H36.1327C33.466 8 31.5993 6.93334 30.1327 5.73334C29.9993 6 29.9993 6.4 29.9993 6.66667C29.466 8.93334 29.3327 9.33334 29.3327 10.1333C29.3327 11.9669 31.3498 15.3693 36.0005 15.923C36.7317 16.01 37.3327 16.597 37.3327 17.3333C37.3327 18.0697 36.7334 18.6742 36.0004 18.6039C29.9223 18.0206 26.666 13.4955 26.666 10.1333C26.666 9.06667 26.7993 8.4 27.3327 6C27.466 5.2 27.7327 4.26667 27.9993 2.93334C28.2444 1.89195 29.4997 1.4725 30.3215 2.15738L30.9327 2.66667C32.5327 4.13334 33.866 5.20001 36.266 5.20001H41.3327C46.5327 5.20001 50.666 9.33334 50.666 14.5333V22.5333C50.666 28.5333 45.866 33.3333 39.9993 33.3333Z" fill="#EC1C24"></path>
<path d="M29.3327 65.3333H26.666V78.6667C26.666 79.4031 27.263 80 27.9993 80C28.7357 80 29.3327 79.4031 29.3327 78.6667V65.3333Z" fill="#EC1C24"></path>
<path d="M53.3327 65.3333H50.666V78.6667C50.666 79.4031 51.263 80 51.9994 80C52.7357 80 53.3327 79.4031 53.3327 78.6667V65.3333Z" fill="#EC1C24"></path>
<path d="M27.466 66.6667C22.666 66.6667 18.666 62.6667 18.666 57.8667C18.666 57.4667 18.666 57.0667 18.7993 56.5333L20.7993 42.9333C21.3327 39.7333 23.7327 37.0667 27.066 36.2667L33.5993 34.8L34.3993 30.5333L37.066 31.0667L35.9993 37.0667L27.7327 38.8C25.5993 39.3333 23.866 41.0667 23.5993 43.2L21.3327 56.9333C21.3327 57.2 21.3327 57.4667 21.3327 57.8667C21.3327 61.2 24.1327 64 27.466 64C28.5327 64 29.5993 63.7333 30.666 63.3333L48.8436 56.1647C49.2839 55.9911 49.5422 55.5324 49.4624 55.0659L48.0983 47.0914C47.9708 46.3459 48.4806 45.6411 49.2286 45.529C49.9537 45.4202 50.633 45.9102 50.7586 46.6325L52.3869 55.9953C52.5495 56.9298 52.0333 57.8499 51.1511 58.1982L31.7327 65.8667C30.266 66.4 28.9327 66.6667 27.466 66.6667Z" fill="#EC1C24"></path>
<path d="M52.5325 66.6667C51.0658 66.6667 49.7325 66.4 48.3992 65.8667L39.4658 62.4L40.3992 59.8667L49.3325 63.3333C50.3992 63.7333 51.3325 64 52.5325 64C55.8658 64 58.6658 61.2 58.6658 57.8667C58.6658 57.6 58.6658 57.2 58.6658 56.9333L56.6658 43.3333C56.3992 41.2 54.6658 39.3333 52.5325 38.9333L44.2658 37.2L43.1992 31.2L45.8658 30.6667L46.6658 34.9333L53.1992 36.4C56.3992 37.0667 58.9325 39.7333 59.4658 43.0667L61.4658 56.6667C61.4658 57.0667 61.5992 57.4667 61.5992 58C61.3325 62.6667 57.3325 66.6667 52.5325 66.6667Z" fill="#EC1C24"></path>
</g>
<defs>
<clipPath id="clip0">
<rect width="80" height="80" fill="white"></rect>
</clipPath>
</defs>
</svg>